<svg width="33" height="28" viewBox="0 0 33 28" fill="none" xmlns="http://www.w3.org/2000/svg">
<path d="M17.0093 19.6362C16.564 19.6362 16.1558 19.4538 15.7847 19.0889L8.91943 12.0659C8.78337 11.9237 8.67822 11.769 8.604 11.6021C8.53597 11.4289 8.50195 11.2433 8.50195 11.0454C8.50195 10.7671 8.56689 10.5166 8.69678 10.2939C8.83285 10.0651 9.01221 9.88574 9.23486 9.75586C9.45752 9.61979 9.70492 9.55176 9.97705 9.55176C10.3914 9.55176 10.7563 9.70947 11.0718 10.0249L17.3896 16.5283H16.6382L22.9375 10.0249C23.2529 9.70947 23.6147 9.55176 24.0229 9.55176C24.2951 9.55176 24.5425 9.61979 24.7651 9.75586C24.9878 9.88574 25.1641 10.0651 25.2939 10.2939C25.43 10.5166 25.498 10.7671 25.498 11.0454C25.498 11.4474 25.3589 11.7876 25.0806 12.0659L18.2246 19.0889C18.0391 19.2744 17.8473 19.4105 17.6494 19.4971C17.4515 19.5837 17.2381 19.63 17.0093 19.6362Z" fill="black"/>
</svg>
